<?xml version="1.0" standalone="no"?>
<!DOCTYPE svg PUBLIC "-//W3C//DTD SVG 20010904//EN"
 "http://www.w3.org/TR/2001/REC-SVG-20010904/DTD/svg10.dtd">
<svg version="1.0" xmlns="http://www.w3.org/2000/svg"
 width="700.000000pt" height="700.000000pt" viewBox="0 0 700.000000 700.000000"
 preserveAspectRatio="xMidYMid meet">
<metadata>
Created by potrace 1.14, written by Peter Selinger 2001-2017
</metadata>
<g transform="translate(0.000000,700.000000) scale(0.100000,-0.100000)"
fill="#000000" stroke="none">
<path d="M298 6981 c-107 -34 -186 -98 -243 -195 -59 -100 -55 124 -52 -3306
l2 -3155 23 -58 c47 -114 156 -215 269 -248 41 -12 527 -14 3213 -14 l3165 0
57 23 c116 47 211 151 249 271 19 62 19 121 19 3205 0 3116 0 3144 -20 3201
-42 123 -133 220 -248 267 l-57 23 -3160 2 c-3041 2 -3162 1 -3217 -16z m6367
-210 c51 -23 101 -79 114 -128 7 -25 11 -310 11 -836 l0 -798 -43 -62 c-24
-34 -87 -125 -139 -202 -52 -77 -125 -185 -163 -240 -37 -55 -106 -156 -153
-225 -47 -69 -127 -186 -178 -260 l-92 -135 -81 2 c-49 1 -101 -4 -131 -13
-28 -8 -56 -12 -63 -7 -13 7 -288 233 -297 242 -3 4 -39 33 -80 66 -41 32 -77
62 -80 65 -3 3 -54 46 -115 95 -117 96 -345 283 -358 294 -4 4 -10 27 -13 52
-22 159 -114 292 -250 359 -170 83 -365 58 -502 -65 -135 -122 -187 -303 -134
-472 l20 -62 -37 -49 c-20 -27 -43 -59 -51 -72 -8 -12 -22 -32 -31 -44 -17
-22 -281 -390 -777 -1083 l-287 -401 -75 3 c-41 2 -93 -1 -116 -6 -42 -11 -42
-11 -85 36 -24 26 -51 55 -59 66 -9 10 -64 69 -121 131 -57 62 -129 140 -159
173 -30 33 -57 62 -60 65 -3 3 -50 55 -105 115 -55 61 -109 119 -120 130 -11
12 -63 68 -115 125 -52 58 -114 125 -136 150 -122 133 -122 132 -113 163 11
40 4 185 -11 222 -37 89 -60 126 -115 181 -65 66 -135 107 -212 125 -247 55
-484 -89 -549 -335 -16 -60 -11 -195 8 -250 l15 -40 -171 -220 c-93 -122 -187
-243 -208 -270 l-38 -49 0 1659 c0 1593 1 1661 19 1699 24 51 68 93 117 110
33 12 535 14 3159 14 2997 1 3122 0 3160 -18z m109 -6427 c-19 -50 -65 -97
-116 -118 -34 -14 -359 -16 -3170 -13 l-3133 2 -48 30 c-33 21 -55 44 -72 79
l-25 49 0 1125 0 1124 32 41 c18 23 38 49 45 57 7 8 39 50 73 94 l60 79 0
-1027 0 -1026 595 0 595 0 0 1156 c0 928 2 1153 13 1142 6 -7 59 -65 117 -128
57 -63 125 -137 150 -165 26 -27 76 -81 111 -120 35 -38 72 -78 82 -87 16 -17
17 -74 17 -908 l0 -890 595 0 595 0 0 956 0 955 98 135 c53 75 104 145 112
158 8 12 58 82 110 155 l95 133 3 -1246 2 -1246 595 0 595 0 0 1545 c0 850 3
1545 6 1545 3 0 11 -6 19 -12 7 -7 99 -80 204 -162 l191 -149 0 -1384 0 -1383
595 0 595 0 0 1506 0 1506 92 137 c51 75 113 166 138 203 l45 67 3 -1937 c2
-1754 1 -1940 -14 -1978z"/>
</g>
</svg>
